<svg width="24" height="24" viewBox="0 0 24 24" fill="none" xmlns="http://www.w3.org/2000/svg">
<path opacity="0.4" d="M0 16H24C24 20.4183 20.4183 24 16 24H8C3.58172 24 0 20.4183 0 16Z" fill="white"/>
<path opacity="0.4" d="M0 0H24C24 4.41828 20.4183 8 16 8H8C3.58172 8 0 4.41828 0 0Z" fill="white"/>
<path d="M9.53674e-07 -3.49691e-07C4.41828 -1.56562e-07 8 3.58172 8 8L8 24C3.58172 24 6.1163e-08 20.4183 2.54292e-07 16L9.53674e-07 -3.49691e-07Z" fill="white"/>
<path d="M16 24L16 8C16 3.58172 19.5817 -1.56562e-07 24 -3.49691e-07L24 16C24 20.4183 20.4183 24 16 24Z" fill="white"/>
</svg>
