<svg width="113" height="115" viewBox="0 0 113 115" fill="none" xmlns="http://www.w3.org/2000/svg">
<path fill-rule="evenodd" clip-rule="evenodd" d="M113 95.3412V81.3414L112.392 81.5044L96.6071 22.5952C95.6394 18.9836 91.9521 16.8299 88.3766 17.788L49.5122 28.2017C45.9366 29.1598 43.8202 32.8685 44.7879 36.4802L60.5726 95.3893L40.8655 100.67C39.1385 101.133 37.293 100.892 35.7454 99.9907C34.193 99.0977 33.0626 97.6156 32.5988 95.8849L14.2048 27.2375L34.7781 0H17.8473L1.45031 21.7091C0.190987 23.3695 -0.225043 25.518 0.315701 27.5361L19.5655 99.3772C20.9585 104.576 24.353 109.007 29.0053 111.695C33.6529 114.39 39.1781 115.122 44.3654 113.732L70.5499 106.716L70.5638 106.712L109.414 96.302L109.428 96.2983L113 95.3412ZM99.437 84.9756L73.5274 91.9181L59.4959 39.5518L85.4055 32.6093L99.437 84.9756Z" fill="#FAFAFA"/>
</svg>
