<svg width="267" height="299" viewBox="0 0 267 299" fill="none" xmlns="http://www.w3.org/2000/svg">
<ellipse cx="117.857" cy="56.4644" rx="15.5" ry="15" fill="#F94F2E"/>
<path d="M6.45189 61.2408C5.59424 58.04 7.49374 54.75 10.6945 53.8923L141.863 18.7458C143.361 18.3443 144.957 18.5386 146.315 19.2879L204.022 51.1277C205.45 51.916 206.496 53.2521 206.919 54.8282L255.791 237.223C256.649 240.424 254.75 243.714 251.549 244.572L74.4986 292.012C71.2978 292.87 68.0078 290.971 67.1501 287.77L6.45189 61.2408Z" fill="#F8F8F8" stroke="#EFEFEF" stroke-width="8"/>
<path d="M32.489 32.9162C32.489 29.6025 35.1753 26.9162 38.489 26.9162H174.767C176.308 26.9162 177.79 27.5089 178.905 28.5714L226.538 73.9367C227.727 75.0691 228.4 76.6394 228.4 78.2815V265.681C228.4 268.995 225.714 271.681 222.4 271.681H38.489C35.1753 271.681 32.489 268.995 32.489 265.681V32.9162Z" fill="white" stroke="#EFEFEF" stroke-width="8"/>
<path d="M175.05 76.1422V27.7446C175.05 25.9628 177.205 25.0705 178.464 26.3304L226.862 74.728C228.122 75.9879 227.23 78.1422 225.448 78.1422H177.05C175.946 78.1422 175.05 77.2467 175.05 76.1422Z" stroke="#EFEFEF" stroke-width="8"/>
<rect x="68.8464" y="114.252" width="129.569" height="8.4963" rx="4.24815" fill="#EFEFEF"/>
<rect x="68.8464" y="141.864" width="129.569" height="10.6204" rx="5.31019" fill="#EFEFEF"/>
<rect x="68.8464" y="171.602" width="129.569" height="8.4963" rx="4.24815" fill="#EFEFEF"/>
<rect x="68.8464" y="199.214" width="76.4667" height="10.6204" rx="5.31019" fill="#EFEFEF"/>
<rect x="68.8464" y="67.5219" width="31.8611" height="10.6204" rx="5.31019" fill="#EFEFEF"/>
<circle cx="220.718" cy="238.51" r="45.6676" fill="#F94F2E"/>
<path fill-rule="evenodd" clip-rule="evenodd" d="M227.037 221.935H216.833V255.098H227.037V221.935ZM201.527 229.588H211.731V255.098H201.527V229.588ZM232.139 239.792H242.343V255.098H232.139V239.792Z" fill="white"/>
</svg>
