<svg width="135" height="136" viewBox="0 0 135 136" fill="none" xmlns="http://www.w3.org/2000/svg">
<path fill-rule="evenodd" clip-rule="evenodd" d="M141 112.952V58.3342L124.972 15.8623C123.262 11.3318 118.198 9.04251 113.667 10.7522L64.4233 29.3359C59.8928 31.0456 57.6035 36.1101 59.3132 40.6405L87.1888 114.506L62.5668 123.798C60.3919 124.619 57.9738 124.547 55.8567 123.583C53.7346 122.631 52.083 120.863 51.2623 118.688L18.7067 32.4212L38.5359 0H17.9724L1.50158 26.9312C0.084409 29.2381 -0.179629 32.0662 0.777463 34.6023L34.8476 124.883C37.313 131.416 42.2698 136.699 48.6312 139.568C54.9875 142.448 62.2284 142.678 68.7614 140.213L101.591 127.824L141 112.952ZM78.8251 42.6533L103.603 108.312L136.433 95.9227L111.654 30.2641L78.8251 42.6533Z" fill="#FAFAFA"/>
</svg>
